<?xml version="1.0" encoding="utf-8"?>
<!-- Generator: Adobe Illustrator 19.0.0, SVG Export Plug-In . SVG Version: 6.00 Build 0)  -->
<svg version="1.1" id="Capa_1" xmlns="http://www.w3.org/2000/svg" xmlns:xlink="http://www.w3.org/1999/xlink" x="0px" y="0px"
	 viewBox="-281 371.5 52 51" style="enable-background:new -281 371.5 52 51;" xml:space="preserve">
<style type="text/css">
	.st0{fill:#56D8C8;stroke:#56D8C8;stroke-width:3;stroke-miterlimit:10;}
</style>
<path class="st0" d="M-231.6,394.8c1-1,1.3-2.4,0.9-3.7c-0.4-1.3-1.5-2.2-2.8-2.4l-11.9-1.8c-0.5-0.1-0.9-0.4-1.2-0.9l-5.3-11
	c-0.6-1.2-1.8-2-3.2-2c-1.3,0-2.6,0.8-3.2,2l-5.3,11c-0.2,0.5-0.7,0.8-1.2,0.9l-11.9,1.8c-1.3,0.2-2.4,1.1-2.8,2.4
	c-0.4,1.3-0.1,2.7,0.9,3.7l8.6,8.5c0.4,0.4,0.5,0.9,0.4,1.4l-2,12c-0.2,1.4,0.3,2.7,1.4,3.5c1.1,0.8,2.5,0.9,3.7,0.3l10.6-5.7
	c0.5-0.2,1-0.2,1.4,0l10.6,5.7c0.5,0.3,1.1,0.4,1.6,0.4c0.7,0,1.4-0.2,2.1-0.7c1.1-0.8,1.6-2.1,1.4-3.5l-2-12
	c-0.1-0.5,0.1-1,0.4-1.4L-231.6,394.8z M-242.6,405.1l2,12c0.1,0.6-0.1,1.2-0.6,1.5c-0.5,0.4-1.1,0.4-1.6,0.1l-10.6-5.7
	c-0.5-0.3-1.1-0.4-1.6-0.4s-1.1,0.1-1.6,0.4l-10.6,5.7c-0.5,0.3-1.1,0.2-1.6-0.1c-0.5-0.4-0.7-0.9-0.6-1.5l2-12
	c0.2-1.2-0.2-2.3-1-3.2l-8.6-8.5c-0.4-0.4-0.6-1-0.4-1.6c0.2-0.6,0.7-1,1.3-1.1l11.9-1.8c1.1-0.2,2.1-0.9,2.6-2l5.3-11
	c0.3-0.6,0.8-0.9,1.4-0.9c0.6,0,1.1,0.3,1.4,0.9l5.3,11c0.5,1.1,1.5,1.8,2.6,2l11.9,1.8c0.6,0.1,1.1,0.5,1.3,1.1
	c0.2,0.6,0,1.2-0.4,1.6l-8.6,8.5C-242.4,402.7-242.8,403.9-242.6,405.1z"/>
</svg>
